<svg xmlns="http://www.w3.org/2000/svg" viewBox="0 0 368.504 155.906" role="img" aria-labelledby="ibsLogoTitle">
  <title id="ibsLogoTitle">INDEX Business School logo</title>
  <g fill="currentColor" transform="matrix(1 0 0 -1 0 155.906)">
    <path d="M 0 0 L 0 -2.54 C -0.23 -2.02 0 -2.73 0 0" transform="matrix(1 0 0 1 134.6321 79.2227)"/>
    <path d="M 0 0 C -0.47 0.36 -1.16 0.55 -2.06 0.55 L -8.38 0.55 L -9.44 -4.63 L -2.95 -4.63 C -2.16 -4.63 -1.5 -4.51 -0.95 -4.27 C -0.41 -4.04 0.01 -3.69 0.29 -3.24 C 0.57 -2.78 0.71 -2.23 0.71 -1.56 C 0.71 -0.89 0.47 -0.37 0 0 M 0.92 6.27 C 0.49 6.59 -0.09 6.76 -0.81 6.76 L -7.13 6.76 L -8.1 1.95 L -1.96 1.95 C -1.45 1.95 -0.97 2.02 -0.53 2.16 C -0.09 2.3 0.29 2.5 0.6 2.76 C 0.91 3.02 1.15 3.33 1.32 3.67 C 1.49 4.02 1.57 4.4 1.57 4.81 C 1.57 5.46 1.36 5.94 0.92 6.27 M 0.92 6.27 C 0.49 6.59 -0.09 6.76 -0.81 6.76 L -7.13 6.76 L -8.1 1.95 L -1.96 1.95 C -1.45 1.95 -0.97 2.02 -0.53 2.16 C -0.09 2.3 0.29 2.5 0.6 2.76 C 0.91 3.02 1.15 3.33 1.32 3.67 C 1.49 4.02 1.57 4.4 1.57 4.81 C 1.57 5.46 1.36 5.94 0.92 6.27 M 0 0 C -0.47 0.36 -1.16 0.55 -2.06 0.55 L -8.38 0.55 L -9.44 -4.63 L -2.95 -4.63 C -2.16 -4.63 -1.5 -4.51 -0.95 -4.27 C -0.41 -4.04 0.01 -3.69 0.29 -3.24 C 0.57 -2.78 0.71 -2.23 0.71 -1.56 C 0.71 -0.89 0.47 -0.37 0 0 M -2.95 -4.63 C -2.16 -4.63 -1.5 -4.51 -0.95 -4.27 C -0.41 -4.04 0.01 -3.69 0.29 -3.24 C 0.57 -2.78 0.71 -2.23 0.71 -1.56 C 0.71 -0.89 0.47 -0.37 0 0 C -0.47 0.36 -1.16 0.55 -2.06 0.55 L -8.38 0.55 L -9.44 -4.63 Z M -0.53 2.16 C -0.09 2.3 0.29 2.5 0.6 2.76 C 0.91 3.02 1.15 3.33 1.32 3.67 C 1.49 4.02 1.57 4.4 1.57 4.81 C 1.57 5.46 1.36 5.94 0.92 6.27 C 0.49 6.59 -0.09 6.76 -0.81 6.76 L -7.13 6.76 L -8.1 1.95 L -1.96 1.95 C -1.45 1.95 -0.97 2.02 -0.53 2.16 M 39.25 -24.49 L 14.65 -48.84 L 28.64 -62.94 C 26.78 -62.97 24.94 -63.12 23.08 -62.94 C 21.46 -62.79 20.48 -61.91 19.41 -60.92 C 16.77 -58.46 14.3 -55.68 11.69 -53.16 C 11.56 -53.04 11.23 -52.67 11.05 -52.7 L 2.07 -61.58 C -0.08 -63.45 -0.33 -62.95 -3.01 -63.04 C -3.21 -63.05 -4.91 -63 -6.44 -63 C -6.31 -62.74 -6.06 -62.44 -5.85 -62.23 C -2.05 -58.17 2.37 -54.28 6.32 -50.3 C 6.5 -50.13 7.47 -49.18 7.51 -49.11 C 7.55 -49.02 7.6 -48.94 7.55 -48.84 L -17.05 -24.49 L -17.05 -17.51 L 11.05 -45.17 L 39.25 -17.51 Z M 39.25 -39.63 L 26.29 -52.28 L 25.96 -52.22 L 22.49 -49.05 L 39.25 -32.65 Z M -17.05 -39.63 L -17.05 -32.65 L -0.29 -49.05 L -3.75 -52.22 C -4.28 -52.54 -4.16 -52.2 -4.41 -51.97 C -8.7 -47.92 -12.79 -43.71 -17.05 -39.63 M -13.05 8.16 L -11.15 8.16 L -14.06 -6.03 L -15.96 -6.03 Z M -0.86 8.16 C 0.06 8.16 0.84 8.04 1.5 7.81 C 2.16 7.58 2.66 7.24 3.02 6.81 C 3.37 6.37 3.55 5.84 3.55 5.22 C 3.55 4.63 3.41 4.07 3.14 3.55 C 2.86 3.02 2.48 2.58 1.98 2.21 C 1.49 1.85 0.88 1.58 0.18 1.42 L 0.18 1.33 C 0.85 1.15 1.42 0.83 1.89 0.37 C 2.35 -0.09 2.58 -0.73 2.58 -1.54 C 2.58 -2.54 2.35 -3.37 1.87 -4.04 C 1.4 -4.7 0.73 -5.2 -0.13 -5.54 C -1 -5.87 -2 -6.03 -3.14 -6.03 L -11.63 -6.03 L -8.72 8.16 Z M 3.9 -2.24 C 3.93 -2.01 3.99 -1.78 4.05 -1.56 L 5.88 -1.56 C 5.81 -1.76 5.77 -1.95 5.73 -2.13 C 5.7 -2.32 5.69 -2.5 5.69 -2.68 C 5.69 -3.23 5.89 -3.67 6.29 -3.98 C 6.69 -4.3 7.23 -4.53 7.92 -4.66 C 8.61 -4.79 9.4 -4.85 10.28 -4.85 C 11.08 -4.85 11.8 -4.79 12.45 -4.67 C 13.09 -4.54 13.64 -4.36 14.11 -4.13 C 14.57 -3.89 14.93 -3.6 15.18 -3.26 C 15.42 -2.92 15.55 -2.52 15.55 -2.08 C 15.55 -1.67 15.42 -1.32 15.18 -1.05 C 14.93 -0.77 14.59 -0.53 14.17 -0.32 C 13.74 -0.11 13.26 0.06 12.73 0.22 C 12.21 0.37 11.65 0.52 11.07 0.67 C 10.45 0.84 9.83 1.02 9.21 1.21 C 8.59 1.4 8.03 1.64 7.52 1.92 C 7 2.21 6.6 2.55 6.3 2.97 C 6 3.38 5.86 3.89 5.86 4.48 C 5.86 5.17 6.03 5.76 6.38 6.25 C 6.74 6.74 7.23 7.14 7.85 7.46 C 8.48 7.78 9.19 8.01 9.99 8.16 C 10.79 8.31 11.64 8.39 12.54 8.39 C 13.44 8.39 14.25 8.32 14.98 8.18 C 15.71 8.04 16.35 7.84 16.88 7.57 C 17.42 7.3 17.83 6.97 18.12 6.56 C 18.41 6.15 18.56 5.68 18.56 5.14 C 18.56 4.99 18.54 4.83 18.52 4.67 C 18.5 4.5 18.46 4.32 18.41 4.13 L 16.54 4.13 C 16.58 4.29 16.62 4.44 16.63 4.57 C 16.65 4.7 16.66 4.82 16.66 4.91 C 16.66 5.63 16.3 6.16 15.59 6.5 C 14.87 6.83 13.83 7 12.47 7 C 11.6 7 10.81 6.91 10.1 6.73 C 9.39 6.56 8.82 6.3 8.4 5.96 C 7.99 5.62 7.78 5.2 7.78 4.69 C 7.78 4.34 7.88 4.04 8.07 3.79 C 8.26 3.53 8.53 3.31 8.87 3.12 C 9.22 2.94 9.61 2.77 10.05 2.62 C 10.49 2.46 10.96 2.33 11.46 2.2 C 12.13 2.02 12.83 1.83 13.54 1.63 C 14.25 1.43 14.91 1.19 15.5 0.9 C 16.09 0.61 16.57 0.25 16.94 -0.19 C 17.31 -0.62 17.5 -1.16 17.5 -1.81 C 17.5 -2.6 17.31 -3.27 16.93 -3.83 C 16.56 -4.39 16.04 -4.85 15.38 -5.2 C 14.72 -5.56 13.96 -5.83 13.1 -6 C 12.23 -6.17 11.32 -6.26 10.38 -6.26 C 9.45 -6.26 8.59 -6.2 7.79 -6.08 C 7 -5.97 6.3 -5.77 5.71 -5.5 C 5.12 -5.24 4.66 -4.89 4.33 -4.46 C 4 -4.03 3.84 -3.51 3.84 -2.89 C 3.84 -2.68 3.85 -2.46 3.9 -2.24 M 5.73 -18.4 C 9.25 -18.16 10.91 -16.89 10.97 -13.57 C 11.23 -13.62 11.19 -13.83 11.23 -13.99 C 11.6 -15.32 11.55 -16.95 13.11 -17.65 C 14.03 -18.07 15.45 -18.26 16.47 -18.35 L 13.42 -19.09 C 11.41 -19.67 11.62 -21.87 11.04 -23.35 C 10.74 -22.11 10.64 -20.15 9.39 -19.37 C 8.35 -18.71 6.9 -18.74 5.73 -18.4 M 28.84 -12.5 L 35.98 -12.5 L 11.15 -37.06 L -13.9 -12.38 L -6.63 -12.5 L 11.05 -29.9 C 11.23 -29.93 11.92 -29.23 12.08 -29.08 C 17.74 -23.62 23.13 -17.91 28.84 -12.5 M 47.32 4.49 L 47.32 7.03 L 47.32 18.51 L -24.77 18.51 L -24.77 -8.14 L -24.73 -8.14 L -24.77 -44.64 C -22.91 -69.13 7.18 -83.62 30.33 -70.15 C 40.64 -64.15 46.63 -54.24 47.11 -43.09 C 47.79 -27.26 47.32 -11.4 47.32 4.49 M 0 0 C -0.47 0.36 -1.16 0.55 -2.06 0.55 L -8.38 0.55 L -9.44 -4.63 L -2.95 -4.63 C -2.16 -4.63 -1.5 -4.51 -0.95 -4.27 C -0.41 -4.04 0.01 -3.69 0.29 -3.24 C 0.57 -2.78 0.71 -2.23 0.71 -1.56 C 0.71 -0.89 0.47 -0.37 0 0 M 0.92 6.27 C 0.49 6.59 -0.09 6.76 -0.81 6.76 L -7.13 6.76 L -8.1 1.95 L -1.96 1.95 C -1.45 1.95 -0.97 2.02 -0.53 2.16 C -0.09 2.3 0.29 2.5 0.6 2.76 C 0.91 3.02 1.15 3.33 1.32 3.67 C 1.49 4.02 1.57 4.4 1.57 4.81 C 1.57 5.46 1.36 5.94 0.92 6.27 M 0.92 6.27 C 0.49 6.59 -0.09 6.76 -0.81 6.76 L -7.13 6.76 L -8.1 1.95 L -1.96 1.95 C -1.45 1.95 -0.97 2.02 -0.53 2.16 C -0.09 2.3 0.29 2.5 0.6 2.76 C 0.91 3.02 1.15 3.33 1.32 3.67 C 1.49 4.02 1.57 4.4 1.57 4.81 C 1.57 5.46 1.36 5.94 0.92 6.27 M 0 0 C -0.47 0.36 -1.16 0.55 -2.06 0.55 L -8.38 0.55 L -9.44 -4.63 L -2.95 -4.63 C -2.16 -4.63 -1.5 -4.51 -0.95 -4.27 C -0.41 -4.04 0.01 -3.69 0.29 -3.24 C 0.57 -2.78 0.71 -2.23 0.71 -1.56 C 0.71 -0.89 0.47 -0.37 0 0" transform="matrix(1 0 0 1 88.31 106.3455)"/>
    <path d="M 155.369 115.64 L 156.177 115.64 L 156.177 40.265 L 155.369 40.265 Z" transform="matrix(1 0 0 1 0 0)"/>
  </g>
  <g style="font-family: Montserrat, Arial, Helvetica, sans-serif; font-weight: 800; fill: currentColor; letter-spacing: .03em;">
    <text x="176.6104" y="68.406" font-size="26.4178">INDEX</text>
    <text x="176.6104" y="88.289" font-size="14.9026">BUSINESS</text>
    <text x="176.6104" y="106.172" font-size="14.9026">SCHOOL</text>
  </g>
</svg>
